# Blender 4.2.1 LTS
# www.blender.org
mtllib EARTH8K.mtl
o Icosphere
v 0.000000 -1.000000 0.000000
v 0.723607 -0.447220 0.525725
v -0.276388 -0.447220 0.850649
v -0.894426 -0.447216 0.000000
v -0.276388 -0.447220 -0.850649
v 0.723607 -0.447220 -0.525725
v 0.276388 0.447220 0.850649
v -0.723607 0.447220 0.525725
v -0.723607 0.447220 -0.525725
v 0.276388 0.447220 -0.850649
v 0.894426 0.447216 0.000000
v 0.000000 1.000000 0.000000
v -0.232822 -0.657519 0.716563
v -0.162456 -0.850654 0.499995
v -0.077607 -0.967950 0.238853
v 0.203181 -0.967950 0.147618
v 0.425323 -0.850654 0.309011
v 0.609547 -0.657519 0.442856
v 0.531941 -0.502302 0.681712
v 0.262869 -0.525738 0.809012
v -0.029639 -0.502302 0.864184
v 0.812729 -0.502301 -0.295238
v 0.850648 -0.525736 0.000000
v 0.812729 -0.502301 0.295238
v 0.203181 -0.967950 -0.147618
v 0.425323 -0.850654 -0.309011
v 0.609547 -0.657519 -0.442856
v -0.753442 -0.657515 0.000000
v -0.525730 -0.850652 0.000000
v -0.251147 -0.967949 0.000000
v -0.483971 -0.502302 0.716565
v -0.688189 -0.525736 0.499997
v -0.831051 -0.502299 0.238853
v -0.232822 -0.657519 -0.716563
v -0.162456 -0.850654 -0.499995
v -0.077607 -0.967950 -0.238853
v -0.831051 -0.502299 -0.238853
v -0.688189 -0.525736 -0.499997
v -0.483971 -0.502302 -0.716565
v -0.029639 -0.502302 -0.864184
v 0.262869 -0.525738 -0.809012
v 0.531941 -0.502302 -0.681712
v 0.956626 0.251149 0.147618
v 0.951058 -0.000000 0.309013
v 0.860698 -0.251151 0.442858
v 0.860698 -0.251151 -0.442858
v 0.951058 0.000000 -0.309013
v 0.956626 0.251149 -0.147618
v 0.155215 0.251152 0.955422
v 0.000000 -0.000000 1.000000
v -0.155215 -0.251152 0.955422
v 0.687159 -0.251152 0.681715
v 0.587786 0.000000 0.809017
v 0.436007 0.251152 0.864188
v -0.860698 0.251151 0.442858
v -0.951058 -0.000000 0.309013
v -0.956626 -0.251149 0.147618
v -0.436007 -0.251152 0.864188
v -0.587786 0.000000 0.809017
v -0.687159 0.251152 0.681715
v -0.687159 0.251152 -0.681715
v -0.587786 -0.000000 -0.809017
v -0.436007 -0.251152 -0.864188
v -0.956626 -0.251149 -0.147618
v -0.951058 0.000000 -0.309013
v -0.860698 0.251151 -0.442858
v 0.436007 0.251152 -0.864188
v 0.587786 -0.000000 -0.809017
v 0.687159 -0.251152 -0.681715
v -0.155215 -0.251152 -0.955422
v 0.000000 0.000000 -1.000000
v 0.155215 0.251152 -0.955422
v 0.831051 0.502299 0.238853
v 0.688189 0.525736 0.499997
v 0.483971 0.502302 0.716565
v 0.029639 0.502302 0.864184
v -0.262869 0.525738 0.809012
v -0.531941 0.502302 0.681712
v -0.812729 0.502301 0.295238
v -0.850648 0.525736 0.000000
v -0.812729 0.502301 -0.295238
v -0.531941 0.502302 -0.681712
v -0.262869 0.525738 -0.809012
v 0.029639 0.502302 -0.864184
v 0.483971 0.502302 -0.716565
v 0.688189 0.525736 -0.499997
v 0.831051 0.502299 -0.238853
v 0.077607 0.967950 0.238853
v 0.162456 0.850654 0.499995
v 0.232822 0.657519 0.716563
v 0.753442 0.657515 0.000000
v 0.525730 0.850652 0.000000
v 0.251147 0.967949 0.000000
v -0.203181 0.967950 0.147618
v -0.425323 0.850654 0.309011
v -0.609547 0.657519 0.442856
v -0.203181 0.967950 -0.147618
v -0.425323 0.850654 -0.309011
v -0.609547 0.657519 -0.442856
v 0.077607 0.967950 -0.238853
v 0.162456 0.850654 -0.499995
v 0.232822 0.657519 -0.716563
v 0.361800 0.894429 -0.262863
v 0.638194 0.723610 -0.262864
v 0.447209 0.723612 -0.525728
v -0.138197 0.894430 -0.425319
v -0.052790 0.723612 -0.688185
v -0.361804 0.723612 -0.587778
v -0.447210 0.894429 0.000000
v -0.670817 0.723611 -0.162457
v -0.670817 0.723611 0.162457
v -0.138197 0.894430 0.425319
v -0.361804 0.723612 0.587778
v -0.052790 0.723612 0.688185
v 0.361800 0.894429 0.262863
v 0.447209 0.723612 0.525728
v 0.638194 0.723610 0.262864
v 0.861804 0.276396 -0.425322
v 0.809019 0.000000 -0.587782
v 0.670821 0.276397 -0.688189
v -0.138199 0.276397 -0.951055
v -0.309016 -0.000000 -0.951057
v -0.447215 0.276397 -0.850649
v -0.947213 0.276396 -0.162458
v -1.000000 0.000001 0.000000
v -0.947213 0.276397 0.162458
v -0.447216 0.276397 0.850648
v -0.309017 -0.000001 0.951056
v -0.138199 0.276397 0.951055
v 0.670820 0.276396 0.688190
v 0.809019 -0.000002 0.587783
v 0.861804 0.276394 0.425323
v 0.309017 -0.000000 -0.951056
v 0.447216 -0.276398 -0.850648
v 0.138199 -0.276398 -0.951055
v -0.809018 -0.000000 -0.587783
v -0.670819 -0.276397 -0.688191
v -0.861803 -0.276396 -0.425324
v -0.809018 0.000000 0.587783
v -0.861803 -0.276396 0.425324
v -0.670819 -0.276397 0.688191
v 0.309017 0.000000 0.951056
v 0.138199 -0.276398 0.951055
v 0.447216 -0.276398 0.850648
v 1.000000 0.000000 0.000000
v 0.947213 -0.276396 0.162458
v 0.947213 -0.276396 -0.162458
v 0.361803 -0.723612 -0.587779
v 0.138197 -0.894429 -0.425321
v 0.052789 -0.723611 -0.688186
v -0.447211 -0.723612 -0.525727
v -0.361801 -0.894429 -0.262863
v -0.638195 -0.723609 -0.262863
v -0.638195 -0.723609 0.262864
v -0.361801 -0.894428 0.262864
v -0.447211 -0.723610 0.525729
v 0.670817 -0.723611 -0.162457
v 0.670818 -0.723610 0.162458
v 0.447211 -0.894428 0.000001
v 0.052790 -0.723612 0.688185
v 0.138199 -0.894429 0.425321
v 0.361805 -0.723611 0.587779
vn 0.0482 -0.9878 0.1482
vn 0.7230 -0.5545 0.4121
vn -0.1261 -0.9878 0.0916
vn -0.1261 -0.9878 -0.0916
vn 0.0482 -0.9878 -0.1482
vn 0.8193 -0.3987 0.4121
vn -0.1387 -0.3987 0.9065
vn -0.9050 -0.3987 0.1482
vn -0.4206 -0.3987 -0.8149
vn 0.6451 -0.3987 -0.6519
vn 0.7711 -0.3024 0.5603
vn -0.2945 -0.3024 0.9065
vn -0.9532 -0.3024 -0.0000
vn -0.2945 -0.3024 -0.9065
vn 0.7711 -0.3024 -0.5603
vn 0.3427 0.5545 0.7583
vn -0.6153 0.5545 0.5603
vn -0.7230 0.5545 -0.4121
vn 0.1685 0.5545 -0.8149
vn 0.8271 0.5545 -0.0916
vn 0.1261 0.9878 -0.0916
vn 0.3912 0.9158 -0.0915
vn 0.6441 0.7594 -0.0915
vn 0.2334 0.9575 -0.1696
vn 0.2079 0.9158 -0.3438
vn 0.5168 0.8363 -0.1830
vn 0.4911 0.7947 -0.3568
vn 0.3338 0.8363 -0.4350
vn 0.2860 0.7594 -0.5843
vn 0.7520 0.6369 -0.1696
vn 0.7261 0.5955 -0.3438
vn 0.5987 0.6726 -0.4350
vn 0.5513 0.5955 -0.5843
vn 0.3936 0.6369 -0.6628
vn 0.3427 0.5545 -0.7583
vn -0.0482 0.9878 -0.1482
vn 0.0339 0.9158 -0.4003
vn 0.1121 0.7594 -0.6409
vn -0.0891 0.9575 -0.2743
vn -0.2627 0.9158 -0.3039
vn -0.0144 0.8363 -0.5481
vn -0.1876 0.7947 -0.5773
vn -0.3105 0.8363 -0.4519
vn -0.4674 0.7594 -0.4526
vn 0.0711 0.6369 -0.7676
vn -0.1026 0.5955 -0.7968
vn -0.2287 0.6726 -0.7038
vn -0.3854 0.5955 -0.7049
vn -0.5087 0.6369 -0.5792
vn -0.6153 0.5545 -0.5603
vn -0.1558 0.9878 -0.0000
vn -0.3702 0.9158 -0.1560
vn -0.5749 0.7594 -0.3046
vn -0.2885 0.9575 -0.0000
vn -0.3702 0.9158 0.1560
vn -0.5257 0.8363 -0.1557
vn -0.6071 0.7947 -0.0000
vn -0.5257 0.8363 0.1557
vn -0.5749 0.7594 0.3046
vn -0.7081 0.6369 -0.3049
vn -0.7895 0.5955 -0.1487
vn -0.7400 0.6726 -0.0000
vn -0.7895 0.5955 0.1487
vn -0.7081 0.6369 0.3049
vn -0.7230 0.5545 0.4121
vn -0.0482 0.9878 0.1482
vn -0.2627 0.9158 0.3039
vn -0.4674 0.7594 0.4526
vn -0.0891 0.9575 0.2743
vn 0.0339 0.9158 0.4003
vn -0.3105 0.8363 0.4519
vn -0.1876 0.7947 0.5773
vn -0.0144 0.8363 0.5481
vn 0.1121 0.7594 0.6409
vn -0.5087 0.6369 0.5792
vn -0.3854 0.5955 0.7049
vn -0.2287 0.6726 0.7038
vn -0.1026 0.5955 0.7968
vn 0.0711 0.6369 0.7676
vn 0.1685 0.5545 0.8149
vn 0.1261 0.9878 0.0916
vn 0.2079 0.9158 0.3438
vn 0.2860 0.7594 0.5843
vn 0.2334 0.9575 0.1696
vn 0.3912 0.9158 0.0915
vn 0.3338 0.8363 0.4350
vn 0.4911 0.7947 0.3568
vn 0.5168 0.8363 0.1830
vn 0.6441 0.7594 0.0915
vn 0.3936 0.6369 0.6628
vn 0.5513 0.5955 0.5843
vn 0.5987 0.6726 0.4350
vn 0.7261 0.5955 0.3438
vn 0.7520 0.6369 0.1696
vn 0.8271 0.5545 0.0916
vn 0.9050 0.3987 -0.1482
vn 0.9366 0.1745 -0.3039
vn 0.8883 -0.0784 -0.4526
vn 0.8963 0.3485 -0.2743
vn 0.8039 0.4399 -0.4003
vn 0.8869 0.0962 -0.4519
vn 0.7947 0.1876 -0.5773
vn 0.7544 0.3611 -0.5481
vn 0.6291 0.4399 -0.6409
vn 0.7972 -0.1702 -0.5792
vn 0.7049 -0.0784 -0.7049
vn 0.7038 0.0962 -0.7038
vn 0.5785 0.1745 -0.7968
vn 0.5379 0.3485 -0.7676
vn 0.4206 0.3987 -0.8149
vn 0.1387 0.3987 -0.9065
vn 0.0004 0.1745 -0.9846
vn -0.1560 -0.0784 -0.9846
vn 0.0160 0.3485 -0.9372
vn -0.1323 0.4399 -0.8883
vn -0.1557 0.0962 -0.9831
vn -0.3035 0.1876 -0.9342
vn -0.2882 0.3611 -0.8869
vn -0.4151 0.4399 -0.7964
vn -0.3045 -0.1702 -0.9372
vn -0.4526 -0.0784 -0.8883
vn -0.4519 0.0962 -0.8869
vn -0.5791 0.1745 -0.7964
vn -0.5638 0.3485 -0.7488
vn -0.6451 0.3987 -0.6519
vn -0.8193 0.3987 -0.4121
vn -0.9363 0.1745 -0.3046
vn -0.9846 -0.0784 -0.1560
vn -0.8864 0.3485 -0.3049
vn -0.8857 0.4399 -0.1487
vn -0.9831 0.0962 -0.1557
vn -0.9822 0.1876 -0.0000
vn -0.9325 0.3611 -0.0000
vn -0.8857 0.4399 0.1487
vn -0.9854 -0.1702 -0.0000
vn -0.9846 -0.0784 0.1560
vn -0.9831 0.0962 0.1557
vn -0.9363 0.1745 0.3046
vn -0.8864 0.3485 0.3049
vn -0.8193 0.3987 0.4121
vn -0.6451 0.3987 0.6519
vn -0.5791 0.1745 0.7964
vn -0.4526 -0.0784 0.8883
vn -0.5638 0.3485 0.7488
vn -0.4151 0.4399 0.7964
vn -0.4519 0.0962 0.8869
vn -0.3035 0.1876 0.9342
vn -0.2882 0.3611 0.8869
vn -0.1323 0.4399 0.8883
vn -0.3045 -0.1702 0.9372
vn -0.1560 -0.0784 0.9846
vn -0.1557 0.0962 0.9831
vn 0.0004 0.1745 0.9846
vn 0.0160 0.3485 0.9372
vn 0.1387 0.3987 0.9065
vn 0.4206 0.3987 0.8149
vn 0.5785 0.1745 0.7968
vn 0.7049 -0.0784 0.7049
vn 0.5379 0.3485 0.7676
vn 0.6291 0.4399 0.6409
vn 0.7038 0.0962 0.7038
vn 0.7947 0.1876 0.5773
vn 0.7544 0.3611 0.5481
vn 0.8039 0.4399 0.4003
vn 0.7972 -0.1702 0.5792
vn 0.8883 -0.0784 0.4526
vn 0.8869 0.0962 0.4519
vn 0.9366 0.1745 0.3039
vn 0.8963 0.3485 0.2744
vn 0.9050 0.3987 0.1482
vn 0.2945 0.3024 -0.9065
vn 0.4526 0.0784 -0.8883
vn 0.5791 -0.1745 -0.7964
vn 0.3045 0.1702 -0.9372
vn 0.1560 0.0784 -0.9846
vn 0.4519 -0.0962 -0.8869
vn 0.3035 -0.1876 -0.9342
vn 0.1557 -0.0962 -0.9831
vn -0.0004 -0.1745 -0.9846
vn 0.5638 -0.3485 -0.7488
vn 0.4151 -0.4399 -0.7964
vn 0.2882 -0.3611 -0.8869
vn 0.1323 -0.4399 -0.8883
vn -0.0160 -0.3485 -0.9372
vn -0.1387 -0.3987 -0.9065
vn -0.7711 0.3024 -0.5603
vn -0.7049 0.0784 -0.7049
vn -0.5785 -0.1745 -0.7968
vn -0.7972 0.1702 -0.5792
vn -0.8883 0.0784 -0.4526
vn -0.7038 -0.0962 -0.7038
vn -0.7947 -0.1876 -0.5774
vn -0.8869 -0.0962 -0.4519
vn -0.9366 -0.1745 -0.3039
vn -0.5379 -0.3485 -0.7676
vn -0.6291 -0.4399 -0.6409
vn -0.7544 -0.3611 -0.5481
vn -0.8039 -0.4399 -0.4003
vn -0.8963 -0.3485 -0.2744
vn -0.9050 -0.3987 -0.1482
vn -0.7711 0.3024 0.5603
vn -0.8883 0.0784 0.4526
vn -0.9366 -0.1745 0.3039
vn -0.7972 0.1702 0.5792
vn -0.7049 0.0784 0.7049
vn -0.8869 -0.0962 0.4519
vn -0.7947 -0.1876 0.5774
vn -0.7038 -0.0962 0.7038
vn -0.5785 -0.1745 0.7968
vn -0.8963 -0.3485 0.2744
vn -0.8039 -0.4399 0.4003
vn -0.7544 -0.3611 0.5481
vn -0.6291 -0.4399 0.6409
vn -0.5379 -0.3485 0.7676
vn -0.4206 -0.3987 0.8149
vn 0.2945 0.3024 0.9065
vn 0.1560 0.0784 0.9846
vn -0.0004 -0.1745 0.9846
vn 0.3045 0.1702 0.9372
vn 0.4526 0.0784 0.8883
vn 0.1557 -0.0962 0.9831
vn 0.3035 -0.1876 0.9342
vn 0.4519 -0.0962 0.8869
vn 0.5791 -0.1745 0.7964
vn -0.0160 -0.3485 0.9372
vn 0.1323 -0.4399 0.8883
vn 0.2882 -0.3611 0.8869
vn 0.4151 -0.4399 0.7964
vn 0.5638 -0.3485 0.7488
vn 0.6451 -0.3987 0.6519
vn 0.9532 0.3024 -0.0000
vn 0.9846 0.0784 0.1560
vn 0.9363 -0.1745 0.3046
vn 0.9854 0.1702 -0.0000
vn 0.9846 0.0784 -0.1560
vn 0.9831 -0.0962 0.1557
vn 0.9822 -0.1876 -0.0000
vn 0.9831 -0.0962 -0.1557
vn 0.9363 -0.1745 -0.3046
vn 0.8864 -0.3485 0.3049
vn 0.8857 -0.4399 0.1487
vn 0.9325 -0.3611 -0.0000
vn 0.8857 -0.4399 -0.1487
vn 0.8864 -0.3485 -0.3049
vn 0.8193 -0.3987 -0.4121
vn 0.6153 -0.5545 -0.5603
vn 0.4674 -0.7594 -0.4526
vn 0.2627 -0.9158 -0.3039
vn 0.5087 -0.6369 -0.5792
vn 0.3854 -0.5955 -0.7049
vn 0.3105 -0.8363 -0.4519
vn 0.1876 -0.7947 -0.5773
vn 0.2287 -0.6726 -0.7038
vn 0.1026 -0.5955 -0.7968
vn 0.0891 -0.9575 -0.2744
vn -0.0339 -0.9158 -0.4003
vn 0.0144 -0.8363 -0.5481
vn -0.1121 -0.7594 -0.6409
vn -0.0711 -0.6369 -0.7676
vn -0.1685 -0.5545 -0.8149
vn -0.3427 -0.5545 -0.7583
vn -0.2860 -0.7594 -0.5843
vn -0.2079 -0.9158 -0.3438
vn -0.3936 -0.6369 -0.6628
vn -0.5513 -0.5955 -0.5843
vn -0.3338 -0.8363 -0.4350
vn -0.4911 -0.7947 -0.3568
vn -0.5987 -0.6726 -0.4350
vn -0.7261 -0.5955 -0.3438
vn -0.2334 -0.9575 -0.1696
vn -0.3912 -0.9158 -0.0915
vn -0.5168 -0.8363 -0.1830
vn -0.6441 -0.7594 -0.0915
vn -0.7520 -0.6369 -0.1696
vn -0.8271 -0.5545 -0.0916
vn -0.8271 -0.5545 0.0916
vn -0.6441 -0.7594 0.0915
vn -0.3912 -0.9158 0.0915
vn -0.7520 -0.6369 0.1696
vn -0.7261 -0.5955 0.3438
vn -0.5168 -0.8363 0.1830
vn -0.4911 -0.7947 0.3568
vn -0.5987 -0.6726 0.4350
vn -0.5513 -0.5955 0.5843
vn -0.2334 -0.9575 0.1696
vn -0.2079 -0.9158 0.3438
vn -0.3338 -0.8363 0.4350
vn -0.2860 -0.7594 0.5843
vn -0.3936 -0.6369 0.6628
vn -0.3427 -0.5545 0.7583
vn 0.7230 -0.5545 -0.4121
vn 0.7895 -0.5955 -0.1487
vn 0.7895 -0.5955 0.1487
vn 0.7081 -0.6369 -0.3049
vn 0.5749 -0.7594 -0.3046
vn 0.7400 -0.6726 -0.0000
vn 0.6071 -0.7947 -0.0000
vn 0.5257 -0.8363 -0.1557
vn 0.3702 -0.9158 -0.1559
vn 0.7081 -0.6369 0.3049
vn 0.5749 -0.7594 0.3046
vn 0.5257 -0.8363 0.1557
vn 0.3702 -0.9158 0.1560
vn 0.2885 -0.9575 -0.0000
vn 0.1558 -0.9878 -0.0000
vn -0.1685 -0.5545 0.8149
vn -0.1121 -0.7594 0.6409
vn -0.0339 -0.9158 0.4003
vn -0.0711 -0.6369 0.7676
vn 0.1026 -0.5955 0.7968
vn 0.0144 -0.8363 0.5481
vn 0.1876 -0.7947 0.5773
vn 0.2287 -0.6726 0.7038
vn 0.3854 -0.5955 0.7049
vn 0.0891 -0.9575 0.2743
vn 0.2627 -0.9158 0.3039
vn 0.3105 -0.8363 0.4519
vn 0.4674 -0.7594 0.4526
vn 0.5087 -0.6369 0.5792
vn 0.6153 -0.5545 0.5603
vt 0.000000 0.147073
vt 0.038995 0.070035
vt 0.087336 0.158993
vt 0.450241 0.210038
vt 0.434865 0.130689
vt 0.516858 0.185921
vt 0.025136 0.223212
vt 1.000000 0.147073
vt 1.025136 0.223212
vt 0.950442 0.209150
vt 0.904773 0.125962
vt 0.487900 0.272437
vt 0.229012 0.354684
vt 0.262737 0.297867
vt 0.268017 0.391735
vt 0.058885 0.488666
vt 0.094778 0.450859
vt 0.088272 0.544288
vt 0.882597 0.457085
vt 0.923303 0.460677
vt 0.893970 0.534644
vt 0.709138 0.294886
vt 0.756620 0.316999
vt 0.714545 0.375153
vt 0.426696 0.283953
vt 0.224467 0.435037
vt 0.041241 0.561452
vt 0.849380 0.503360
vt 0.666987 0.334793
vt 0.382597 0.542915
vt 0.423303 0.539323
vt 0.397006 0.618786
vt 0.209138 0.705114
vt 0.256620 0.683000
vt 0.238818 0.773515
vt 0.950241 0.789962
vt 1.016858 0.814079
vt 0.934865 0.869311
vt 0.729012 0.645316
vt 0.762737 0.702133
vt 0.703666 0.713962
vt 0.558885 0.511334
vt 0.594778 0.549141
vt 0.551376 0.590777
vt 0.525136 0.776788
vt 0.587336 0.841007
vt 0.500000 0.852927
vt 0.540832 0.684259
vt 0.591115 0.747019
vt 0.593327 0.643195
vt 0.660111 0.787473
vt 0.647211 0.689223
vt 0.638895 0.590347
vt 0.686140 0.624537
vt 0.538995 0.929965
vt 0.690082 0.883350
vt 0.742037 0.791592
vt 0.850285 0.956201
vt 0.820678 0.857264
vt 0.814828 0.757473
vt 0.884084 0.789570
vt 0.404773 0.874038
vt 0.278349 0.941228
vt 1.064478 0.899466
vt 0.298417 0.841947
vt 1.278349 0.941228
vt 0.064478 0.899466
vt 0.189407 0.850710
vt 0.016858 0.814079
vt 0.101766 0.804630
vt 0.168820 0.759488
vt 0.450442 0.790850
vt 0.374008 0.784981
vt 0.303490 0.742129
vt 0.418122 0.706890
vt 0.358510 0.683590
vt 0.306169 0.642224
vt 0.349341 0.590964
vt 0.481098 0.707133
vt 0.447612 0.620878
vt 0.502944 0.610478
vt 0.471159 0.531862
vt 0.518752 0.521575
vt 0.588272 0.455712
vt 0.624992 0.392222
vt 0.632005 0.491276
vt 0.673638 0.428078
vt 0.680023 0.531187
vt 0.719650 0.470043
vt 0.724467 0.564963
vt 0.768017 0.608265
vt 0.809924 0.557645
vt 0.811946 0.657574
vt 0.857505 0.596087
vt 0.868515 0.698116
vt 0.908334 0.625935
vt 0.926696 0.716046
vt 0.987900 0.727562
vt 1.018078 0.646254
vt 1.050612 0.730684
vt 0.072953 0.633695
vt 0.018078 0.646254
vt 0.050612 0.730684
vt 0.116191 0.706589
vt 0.124992 0.607778
vt 0.166987 0.665207
vt 0.214545 0.624847
vt 0.219650 0.529957
vt 0.260718 0.589197
vt 0.264507 0.485581
vt 0.308128 0.542293
vt 0.309923 0.442355
vt 0.349380 0.496640
vt 0.393970 0.465356
vt 0.408334 0.374065
vt 0.440946 0.452048
vt 0.462375 0.356478
vt 0.493385 0.442192
vt 0.518078 0.353746
vt 0.541241 0.438548
vt 0.764507 0.514419
vt 0.760718 0.410802
vt 0.808128 0.457707
vt 0.806169 0.357776
vt 0.849341 0.409036
vt 0.962375 0.643521
vt 0.940945 0.547952
vt 0.993385 0.557808
vt 1.041241 0.561452
vt 0.971159 0.468138
vt 1.018752 0.478425
vt 0.018752 0.478425
vt 0.173638 0.571922
vt 0.132005 0.508724
vt 0.180024 0.468813
vt 0.138895 0.409653
vt 0.186140 0.375463
vt 0.357505 0.403913
vt 0.311946 0.342426
vt 0.368515 0.301884
vt 0.314828 0.242527
vt 0.384084 0.210430
vt 0.572952 0.366305
vt 0.550612 0.269316
vt 0.616191 0.293412
vt 0.601766 0.195370
vt 0.668820 0.240512
vt 0.738818 0.226484
vt 0.798417 0.158053
vt 0.803490 0.257872
vt 0.874008 0.215020
vt 0.858510 0.316411
vt 0.918122 0.293110
vt 0.897006 0.381214
vt 0.947612 0.379122
vt 0.981098 0.292867
vt 1.002945 0.389522
vt 1.040832 0.315741
vt 0.040832 0.315741
vt 0.051376 0.409223
vt 0.002945 0.389522
vt 0.093327 0.356805
vt 0.091115 0.252982
vt 0.147211 0.310777
vt 0.160111 0.212526
vt 0.203666 0.286038
vt 0.689407 0.149290
vt 0.564478 0.100534
vt 0.778348 0.058772
vt 0.350284 0.043799
vt 1.038995 0.070035
vt 0.242038 0.208408
vt 0.190082 0.116650
vt 0.320679 0.142736
s 0
usemtl Material.001
f 1/1/1 16/2/1 15/3/1
f 2/4/2 18/5/2 24/6/2
f 1/1/3 15/3/3 30/7/3
f 1/8/4 30/9/4 36/10/4
f 1/8/5 36/10/5 25/11/5
f 2/4/6 24/6/6 45/12/6
f 3/13/7 21/14/7 51/15/7
f 4/16/8 33/17/8 57/18/8
f 5/19/9 39/20/9 63/21/9
f 6/22/10 42/23/10 69/24/10
f 2/4/11 45/12/11 52/25/11
f 3/13/12 51/15/12 58/26/12
f 4/16/13 57/18/13 64/27/13
f 5/19/14 63/21/14 70/28/14
f 6/22/15 69/24/15 46/29/15
f 7/30/16 75/31/16 90/32/16
f 8/33/17 78/34/17 96/35/17
f 9/36/18 81/37/18 99/38/18
f 10/39/19 84/40/19 102/41/19
f 11/42/20 87/43/20 91/44/20
f 93/45/21 100/46/21 12/47/21
f 92/48/22 103/49/22 93/45/22
f 91/44/23 104/50/23 92/48/23
f 93/45/24 103/49/24 100/46/24
f 103/49/25 101/51/25 100/46/25
f 92/48/26 104/50/26 103/49/26
f 104/50/27 105/52/27 103/49/27
f 103/49/28 105/52/28 101/51/28
f 105/52/29 102/41/29 101/51/29
f 91/44/30 87/43/30 104/50/30
f 87/43/31 86/53/31 104/50/31
f 104/50/32 86/53/32 105/52/32
f 86/53/33 85/54/33 105/52/33
f 105/52/34 85/54/34 102/41/34
f 85/54/35 10/39/35 102/41/35
f 100/46/36 97/55/36 12/47/36
f 101/51/37 106/56/37 100/46/37
f 102/41/38 107/57/38 101/51/38
f 100/46/39 106/56/39 97/55/39
f 106/56/40 98/58/40 97/55/40
f 101/51/41 107/57/41 106/56/41
f 107/57/42 108/59/42 106/56/42
f 106/56/43 108/59/43 98/58/43
f 108/59/44 99/38/44 98/58/44
f 102/41/45 84/40/45 107/57/45
f 84/40/46 83/60/46 107/57/46
f 107/57/47 83/60/47 108/59/47
f 83/60/48 82/61/48 108/59/48
f 108/59/49 82/61/49 99/38/49
f 82/61/50 9/36/50 99/38/50
f 97/55/51 94/62/51 12/47/51
f 98/58/52 109/63/52 97/55/52
f 99/38/53 110/64/53 98/58/53
f 97/55/54 109/63/54 94/62/54
f 109/63/55 95/65/55 94/62/55
f 98/58/56 110/64/56 109/66/56
f 110/67/57 111/68/57 109/63/57
f 109/63/58 111/68/58 95/65/58
f 111/68/59 96/35/59 95/65/59
f 99/38/60 81/37/60 110/64/60
f 81/69/61 80/70/61 110/67/61
f 110/67/62 80/70/62 111/68/62
f 80/70/63 79/71/63 111/68/63
f 111/68/64 79/71/64 96/35/64
f 79/71/65 8/33/65 96/35/65
f 94/62/66 88/72/66 12/47/66
f 95/65/67 112/73/67 94/62/67
f 96/35/68 113/74/68 95/65/68
f 94/62/69 112/73/69 88/72/69
f 112/73/70 89/75/70 88/72/70
f 95/65/71 113/74/71 112/73/71
f 113/74/72 114/76/72 112/73/72
f 112/73/73 114/76/73 89/75/73
f 114/76/74 90/32/74 89/75/74
f 96/35/75 78/34/75 113/74/75
f 78/34/76 77/77/76 113/74/76
f 113/74/77 77/77/77 114/76/77
f 77/77/78 76/78/78 114/76/78
f 114/76/79 76/78/79 90/32/79
f 76/78/80 7/30/80 90/32/80
f 88/72/81 93/45/81 12/47/81
f 89/75/82 115/79/82 88/72/82
f 90/32/83 116/80/83 89/75/83
f 88/72/84 115/79/84 93/45/84
f 115/79/85 92/48/85 93/45/85
f 89/75/86 116/80/86 115/79/86
f 116/80/87 117/81/87 115/79/87
f 115/79/88 117/81/88 92/48/88
f 117/81/89 91/44/89 92/48/89
f 90/32/90 75/31/90 116/80/90
f 75/31/91 74/82/91 116/80/91
f 116/80/92 74/82/92 117/81/92
f 74/82/93 73/83/93 117/81/93
f 117/81/94 73/83/94 91/44/94
f 73/83/95 11/42/95 91/44/95
f 48/84/96 87/43/96 11/42/96
f 47/85/97 118/86/97 48/84/97
f 46/29/98 119/87/98 47/85/98
f 48/84/99 118/86/99 87/43/99
f 118/86/100 86/53/100 87/43/100
f 47/85/101 119/87/101 118/86/101
f 119/87/102 120/88/102 118/86/102
f 118/86/103 120/88/103 86/53/103
f 120/88/104 85/54/104 86/53/104
f 46/29/105 69/24/105 119/87/105
f 69/24/106 68/89/106 119/87/106
f 119/87/107 68/89/107 120/88/107
f 68/89/108 67/90/108 120/88/108
f 120/88/109 67/90/109 85/54/109
f 67/90/110 10/39/110 85/54/110
f 72/91/111 84/40/111 10/39/111
f 71/92/112 121/93/112 72/91/112
f 70/28/113 122/94/113 71/92/113
f 72/91/114 121/93/114 84/40/114
f 121/93/115 83/60/115 84/40/115
f 71/92/116 122/94/116 121/93/116
f 122/94/117 123/95/117 121/93/117
f 121/93/118 123/95/118 83/60/118
f 123/95/119 82/61/119 83/60/119
f 70/28/120 63/21/120 122/94/120
f 63/21/121 62/96/121 122/94/121
f 122/94/122 62/96/122 123/95/122
f 62/96/123 61/97/123 123/95/123
f 123/95/124 61/97/124 82/61/124
f 61/97/125 9/36/125 82/61/125
f 66/98/126 81/37/126 9/36/126
f 65/99/127 124/100/127 66/98/127
f 64/27/128 125/101/128 65/102/128
f 66/98/129 124/100/129 81/37/129
f 124/103/130 80/70/130 81/69/130
f 65/102/131 125/101/131 124/103/131
f 125/101/132 126/104/132 124/103/132
f 124/103/133 126/104/133 80/70/133
f 126/104/134 79/71/134 80/70/134
f 64/27/135 57/18/135 125/101/135
f 57/18/136 56/105/136 125/101/136
f 125/101/137 56/105/137 126/104/137
f 56/105/138 55/106/138 126/104/138
f 126/104/139 55/106/139 79/71/139
f 55/106/140 8/33/140 79/71/140
f 60/107/141 78/34/141 8/33/141
f 59/108/142 127/109/142 60/107/142
f 58/26/143 128/110/143 59/108/143
f 60/107/144 127/109/144 78/34/144
f 127/109/145 77/77/145 78/34/145
f 59/108/146 128/110/146 127/109/146
f 128/110/147 129/111/147 127/109/147
f 127/109/148 129/111/148 77/77/148
f 129/111/149 76/78/149 77/77/149
f 58/26/150 51/15/150 128/110/150
f 51/15/151 50/112/151 128/110/151
f 128/110/152 50/112/152 129/111/152
f 50/112/153 49/113/153 129/111/153
f 129/111/154 49/113/154 76/78/154
f 49/113/155 7/30/155 76/78/155
f 54/114/156 75/31/156 7/30/156
f 53/115/157 130/116/157 54/114/157
f 52/25/158 131/117/158 53/115/158
f 54/114/159 130/116/159 75/31/159
f 130/116/160 74/82/160 75/31/160
f 53/115/161 131/117/161 130/116/161
f 131/117/162 132/118/162 130/116/162
f 130/116/163 132/118/163 74/82/163
f 132/118/164 73/83/164 74/82/164
f 52/25/165 45/12/165 131/117/165
f 45/12/166 44/119/166 131/117/166
f 131/117/167 44/119/167 132/118/167
f 44/119/168 43/120/168 132/118/168
f 132/118/169 43/120/169 73/83/169
f 43/120/170 11/42/170 73/83/170
f 67/90/171 72/91/171 10/39/171
f 68/89/172 133/121/172 67/90/172
f 69/24/173 134/122/173 68/89/173
f 67/90/174 133/121/174 72/91/174
f 133/121/175 71/92/175 72/91/175
f 68/89/176 134/122/176 133/121/176
f 134/122/177 135/123/177 133/121/177
f 133/121/178 135/123/178 71/92/178
f 135/123/179 70/28/179 71/92/179
f 69/24/180 42/23/180 134/122/180
f 42/23/181 41/124/181 134/122/181
f 134/122/182 41/124/182 135/123/182
f 41/124/183 40/125/183 135/123/183
f 135/123/184 40/125/184 70/28/184
f 40/125/185 5/19/185 70/28/185
f 61/97/186 66/98/186 9/36/186
f 62/96/187 136/126/187 61/97/187
f 63/21/188 137/127/188 62/96/188
f 61/97/189 136/126/189 66/98/189
f 136/126/190 65/99/190 66/98/190
f 62/96/191 137/127/191 136/126/191
f 137/127/192 138/128/192 136/126/192
f 136/126/193 138/128/193 65/99/193
f 138/128/194 64/129/194 65/99/194
f 63/21/195 39/20/195 137/127/195
f 39/20/196 38/130/196 137/127/196
f 137/127/197 38/130/197 138/128/197
f 38/130/198 37/131/198 138/128/198
f 138/128/199 37/131/199 64/129/199
f 37/132/200 4/16/200 64/27/200
f 55/106/201 60/107/201 8/33/201
f 56/105/202 139/133/202 55/106/202
f 57/18/203 140/134/203 56/105/203
f 55/106/204 139/133/204 60/107/204
f 139/133/205 59/108/205 60/107/205
f 56/105/206 140/134/206 139/133/206
f 140/134/207 141/135/207 139/133/207
f 139/133/208 141/135/208 59/108/208
f 141/135/209 58/26/209 59/108/209
f 57/18/210 33/17/210 140/134/210
f 33/17/211 32/136/211 140/134/211
f 140/134/212 32/136/212 141/135/212
f 32/136/213 31/137/213 141/135/213
f 141/135/214 31/137/214 58/26/214
f 31/137/215 3/13/215 58/26/215
f 49/113/216 54/114/216 7/30/216
f 50/112/217 142/138/217 49/113/217
f 51/15/218 143/139/218 50/112/218
f 49/113/219 142/138/219 54/114/219
f 142/138/220 53/115/220 54/114/220
f 50/112/221 143/139/221 142/138/221
f 143/139/222 144/140/222 142/138/222
f 142/138/223 144/140/223 53/115/223
f 144/140/224 52/25/224 53/115/224
f 51/15/225 21/14/225 143/139/225
f 21/14/226 20/141/226 143/139/226
f 143/139/227 20/141/227 144/140/227
f 20/141/228 19/142/228 144/140/228
f 144/140/229 19/142/229 52/25/229
f 19/142/230 2/4/230 52/25/230
f 43/120/231 48/84/231 11/42/231
f 44/119/232 145/143/232 43/120/232
f 45/12/233 146/144/233 44/119/233
f 43/120/234 145/143/234 48/84/234
f 145/143/235 47/85/235 48/84/235
f 44/119/236 146/144/236 145/143/236
f 146/144/237 147/145/237 145/143/237
f 145/143/238 147/145/238 47/85/238
f 147/145/239 46/29/239 47/85/239
f 45/12/240 24/6/240 146/144/240
f 24/6/241 23/146/241 146/144/241
f 146/144/242 23/146/242 147/145/242
f 23/146/243 22/147/243 147/145/243
f 147/145/244 22/147/244 46/29/244
f 22/147/245 6/22/245 46/29/245
f 27/148/246 42/23/246 6/22/246
f 26/149/247 148/150/247 27/148/247
f 25/11/248 149/151/248 26/149/248
f 27/148/249 148/150/249 42/23/249
f 148/150/250 41/124/250 42/23/250
f 26/149/251 149/151/251 148/150/251
f 149/151/252 150/152/252 148/150/252
f 148/150/253 150/152/253 41/124/253
f 150/152/254 40/125/254 41/124/254
f 25/11/255 36/10/255 149/151/255
f 36/10/256 35/153/256 149/151/256
f 149/151/257 35/153/257 150/152/257
f 35/153/258 34/154/258 150/152/258
f 150/152/259 34/154/259 40/125/259
f 34/154/260 5/19/260 40/125/260
f 34/154/261 39/20/261 5/19/261
f 35/153/262 151/155/262 34/154/262
f 36/10/263 152/156/263 35/153/263
f 34/154/264 151/155/264 39/20/264
f 151/155/265 38/130/265 39/20/265
f 35/153/266 152/156/266 151/155/266
f 152/156/267 153/157/267 151/155/267
f 151/155/268 153/157/268 38/130/268
f 153/157/269 37/131/269 38/130/269
f 36/10/270 30/9/270 152/156/270
f 30/9/271 29/158/271 152/156/271
f 152/156/272 29/158/272 153/157/272
f 29/159/273 28/160/273 153/161/273
f 153/161/274 28/160/274 37/132/274
f 28/160/275 4/16/275 37/132/275
f 28/160/276 33/17/276 4/16/276
f 29/159/277 154/162/277 28/160/277
f 30/7/278 155/163/278 29/159/278
f 28/160/279 154/162/279 33/17/279
f 154/162/280 32/136/280 33/17/280
f 29/159/281 155/163/281 154/162/281
f 155/163/282 156/164/282 154/162/282
f 154/162/283 156/164/283 32/136/283
f 156/164/284 31/137/284 32/136/284
f 30/7/285 15/3/285 155/163/285
f 15/3/286 14/165/286 155/163/286
f 155/163/287 14/165/287 156/164/287
f 14/165/288 13/166/288 156/164/288
f 156/164/289 13/166/289 31/137/289
f 13/166/290 3/13/290 31/137/290
f 22/147/291 27/148/291 6/22/291
f 23/146/292 157/167/292 22/147/292
f 24/6/293 158/168/293 23/146/293
f 22/147/294 157/167/294 27/148/294
f 157/167/295 26/149/295 27/148/295
f 23/146/296 158/168/296 157/167/296
f 158/168/297 159/169/297 157/167/297
f 157/167/298 159/169/298 26/149/298
f 159/169/299 25/11/299 26/149/299
f 24/6/300 18/5/300 158/168/300
f 18/5/301 17/170/301 158/168/301
f 158/168/302 17/170/302 159/169/302
f 17/170/303 16/171/303 159/169/303
f 159/169/304 16/171/304 25/11/304
f 16/171/305 1/8/305 25/11/305
f 13/166/306 21/14/306 3/13/306
f 14/165/307 160/172/307 13/166/307
f 15/3/308 161/173/308 14/165/308
f 13/166/309 160/172/309 21/14/309
f 160/172/310 20/141/310 21/14/310
f 14/165/311 161/173/311 160/172/311
f 161/173/312 162/174/312 160/172/312
f 160/172/313 162/174/313 20/141/313
f 162/174/314 19/142/314 20/141/314
f 15/3/315 16/2/315 161/173/315
f 16/2/316 17/170/316 161/173/316
f 161/173/317 17/170/317 162/174/317
f 17/170/318 18/5/318 162/174/318
f 162/174/319 18/5/319 19/142/319
f 18/5/320 2/4/320 19/142/320
