# Blender 4.2.1 LTS
# www.blender.org
mtllib TREE.mtl
o Circle.004
v 0.018577 4.393569 0.003999
v 0.021628 4.443867 -0.031963
v -0.017186 4.450128 -0.079784
v -0.059050 4.406092 -0.091641
v -0.062101 4.355794 -0.055679
v -0.023288 4.349533 -0.007859
v -0.367555 4.843939 0.358112
v -0.349054 4.876917 0.327865
v -0.369813 4.884615 0.284801
v -0.409072 4.859335 0.271984
v -0.427574 4.826356 0.302231
v -0.406815 4.818659 0.345295
v -0.541849 5.436645 0.614166
v -0.546336 5.457162 0.587437
v -0.576987 5.459774 0.572972
v -0.603152 5.441869 0.585236
v -0.598664 5.421352 0.611965
v -0.568013 5.418739 0.626431
v -0.672156 6.162157 1.051697
v -0.674427 6.164493 1.046906
v -0.680163 6.164443 1.046098
v -0.683629 6.162057 1.050080
v -0.681358 6.159721 1.054870
v -0.675622 6.159771 1.055679
vn 0.5164 -0.2094 0.8303
vn 0.8163 0.5478 0.1833
vn 0.2036 0.7207 -0.6627
vn -0.6349 0.1190 -0.7634
vn -0.8209 -0.5624 -0.0994
vn -0.2875 -0.7141 0.6383
vn 0.5695 -0.1712 0.8039
vn 0.8926 0.4478 0.0523
vn 0.2311 0.6241 -0.7464
vn -0.6692 0.1443 -0.7290
vn -0.8880 -0.4599 0.0018
vn -0.3041 -0.5987 0.7410
vn 0.8175 -0.0916 0.5686
vn 0.8486 0.4192 -0.3228
vn 0.0126 0.5281 -0.8491
vn -0.8303 0.1395 -0.5396
vn -0.8876 -0.3594 0.2881
vn -0.0961 -0.4855 0.8689
vn 0.6692 0.4590 0.5843
vn 0.5420 0.8351 -0.0941
vn -0.1830 0.9123 -0.3664
vn -0.7857 0.6179 0.0300
vn -0.6697 0.2429 0.7018
vn 0.0556 0.1598 0.9856
vt 0.720269 0.005225
vt 0.756131 0.008999
vt 0.774925 0.315086
vt 0.746693 0.312285
vt 0.791895 0.013270
vt 0.826274 0.012239
vt 0.832719 0.311778
vt 0.803525 0.315497
vt 0.898559 0.000046
vt 0.936495 0.000638
vt 0.918645 0.308208
vt 0.890200 0.305074
vt 0.861457 0.005965
vt 0.861542 0.306651
vt 0.836801 0.617443
vt 0.817362 0.615602
vt 0.894886 0.613030
vt 0.875314 0.615473
vt 0.856181 0.617563
vt 0.797348 0.614740
vt 0.914738 0.612931
vt 0.850582 0.988067
vt 0.842194 0.989049
vt 0.867644 0.987578
vt 0.859091 0.987479
vt 0.894219 0.988570
vt 0.885456 0.988570
vt 0.876490 0.988137
vt 0.894218 0.999954
vt 0.885455 0.999954
vt 0.881073 0.994261
vt 0.898600 0.994262
s 1
usemtl Material
f 6/1/6 1/2/1 7/3/7 12/4/12
f 2/5/2 3/6/3 9/7/9 8/8/8
f 5/9/5 6/10/6 12/11/12 11/12/11
f 1/2/1 2/5/2 8/8/8 7/3/7
f 4/13/4 5/9/5 11/12/11 10/14/10
f 3/6/3 4/13/4 10/14/10 9/7/9
f 7/3/7 8/8/8 14/15/14 13/16/13
f 10/14/10 11/12/11 17/17/17 16/18/16
f 9/7/9 10/14/10 16/18/16 15/19/15
f 12/4/12 7/3/7 13/16/13 18/20/18
f 8/8/8 9/7/9 15/19/15 14/15/14
f 11/12/11 12/11/12 18/21/18 17/17/17
f 18/20/18 13/16/13 19/22/19 24/23/24
f 14/15/14 15/19/15 21/24/21 20/25/20
f 17/17/17 18/21/18 24/26/24 23/27/23
f 13/16/13 14/15/14 20/25/20 19/22/19
f 16/18/16 17/17/17 23/27/23 22/28/22
f 15/19/15 16/18/16 22/28/22 21/24/21
f 20/29/20 21/30/21 22/31/22 23/27/23 24/26/24 19/32/19
o Circle.003
v 0.861643 3.345771 0.241192
v 0.866801 3.407942 0.228524
v 0.815155 3.445127 0.230049
v 0.758352 3.420141 0.244242
v 0.753195 3.357969 0.256910
v 0.804841 3.320785 0.255385
v 1.050983 3.607621 0.873881
v 1.061105 3.649298 0.848586
v 1.024941 3.682286 0.839461
v 0.978657 3.673596 0.855630
v 0.968535 3.631920 0.880925
v 1.004698 3.598932 0.890051
v 1.390531 4.010811 1.315523
v 1.381481 4.043534 1.307208
v 1.353810 4.058438 1.322506
v 1.335188 4.040619 1.346119
v 1.344238 4.007895 1.354434
v 1.371910 3.992991 1.339136
v 1.936726 4.424716 1.869861
v 1.933470 4.429657 1.869179
v 1.929185 4.430966 1.873105
v 1.928157 4.427335 1.877713
v 1.931413 4.422393 1.878395
v 1.935698 4.421084 1.874470
vn 0.7225 -0.6879 0.0690
vn 0.8971 0.2375 -0.3726
vn 0.0860 0.9179 -0.3873
vn -0.8023 0.5956 0.0398
vn -0.8571 -0.2927 0.4239
vn -0.1509 -0.8866 0.4372
vn 0.7593 -0.6504 0.0219
vn 0.8189 0.2097 -0.5342
vn 0.0066 0.8760 -0.4823
vn -0.7913 0.6044 0.0927
vn -0.7896 -0.2487 0.5609
vn -0.0440 -0.8405 0.5401
vn 0.8160 -0.4999 -0.2901
vn 0.5533 0.3874 -0.7374
vn -0.2408 0.8828 -0.4033
vn -0.7835 0.5271 0.3290
vn -0.5698 -0.3130 0.7598
vn 0.2201 -0.8443 0.4886
vn 0.9991 -0.0224 -0.0374
vn 0.6967 0.6658 -0.2671
vn 0.1093 0.9853 0.1313
vn -0.1824 0.6261 0.7581
vn 0.1093 -0.0560 0.9924
vn 0.7009 -0.3865 0.5995
vt 0.896014 0.000844
vt 0.933078 0.008168
vt 0.902914 0.312294
vt 0.875987 0.307131
vt 0.750135 0.013027
vt 0.784875 0.012048
vt 0.791167 0.310748
vt 0.762348 0.314466
vt 0.857794 0.000047
vt 0.847916 0.304080
vt 0.714060 0.008730
vt 0.733739 0.314100
vt 0.820381 0.005838
vt 0.819624 0.305651
vt 0.795475 0.614401
vt 0.775983 0.612594
vt 0.853719 0.609896
vt 0.834096 0.612382
vt 0.814911 0.614503
vt 0.893901 0.612523
vt 0.874142 0.609740
vt 0.862270 0.988511
vt 0.853458 0.988672
vt 0.826798 0.987672
vt 0.818167 0.987572
vt 0.844774 0.988671
vt 0.809581 0.988165
vt 0.835725 0.988236
vt 0.853458 0.999953
vt 0.844773 0.999953
vt 0.840431 0.994312
vt 0.857800 0.994312
s 1
usemtl Material
f 30/33/30 25/34/25 31/35/31 36/36/36
f 26/37/26 27/38/27 33/39/33 32/40/32
f 29/41/29 30/33/30 36/36/36 35/42/35
f 25/43/25 26/37/26 32/40/32 31/44/31
f 28/45/28 29/41/29 35/42/35 34/46/34
f 27/38/27 28/45/28 34/46/34 33/39/33
f 31/44/31 32/40/32 38/47/38 37/48/37
f 34/46/34 35/42/35 41/49/41 40/50/40
f 33/39/33 34/46/34 40/50/40 39/51/39
f 36/36/36 31/35/31 37/52/37 42/53/42
f 32/40/32 33/39/33 39/51/39 38/47/38
f 35/42/35 36/36/36 42/53/42 41/49/41
f 42/53/42 37/52/37 43/54/43 48/55/48
f 38/47/38 39/51/39 45/56/45 44/57/44
f 41/49/41 42/53/42 48/55/48 47/58/47
f 37/48/37 38/47/38 44/57/44 43/59/43
f 40/50/40 41/49/41 47/58/47 46/60/46
f 39/51/39 40/50/40 46/60/46 45/56/45
f 44/61/44 45/62/45 46/63/46 47/58/47 48/55/48 43/64/43
o Circle.002
v -0.070870 2.865375 0.016178
v -0.018342 2.941469 0.031088
v 0.063877 2.950942 -0.012754
v 0.093568 2.884319 -0.071505
v 0.041041 2.808225 -0.086415
v -0.041178 2.798752 -0.042573
v -0.485332 3.546731 -0.659459
v -0.445751 3.596623 -0.623254
v -0.375806 3.608269 -0.641656
v -0.345441 3.570024 -0.696262
v -0.385022 3.520131 -0.732467
v -0.454967 3.508485 -0.714065
v -0.815301 4.443426 -0.992198
v -0.774310 4.474466 -0.991148
v -0.743982 4.478419 -1.032494
v -0.754645 4.451330 -1.074890
v -0.795636 4.420290 -1.075940
v -0.825964 4.416337 -1.034594
v -1.427474 5.541041 -1.311983
v -1.419704 5.544575 -1.313973
v -1.416848 5.544499 -1.322258
v -1.421762 5.540891 -1.328555
v -1.429531 5.537356 -1.326565
v -1.432388 5.537432 -1.318280
vn -0.9136 -0.2094 0.3486
vn -0.3356 0.5478 0.7664
vn 0.6117 0.7207 0.3262
vn 0.8705 0.1190 -0.4776
vn 0.2542 -0.5624 -0.7869
vn -0.5717 -0.7141 -0.4040
vn -0.8978 -0.1712 0.4057
vn -0.2216 0.4478 0.8663
vn 0.6886 0.6241 0.3693
vn 0.8432 0.1443 -0.5178
vn 0.1676 -0.4599 -0.8720
vn -0.6694 -0.5987 -0.4399
vn -0.7141 -0.0916 0.6941
vn 0.1550 0.4192 0.8945
vn 0.8311 0.5281 0.1743
vn 0.6880 0.1395 -0.7121
vn -0.1135 -0.3594 -0.9263
vn -0.8346 -0.4855 -0.2601
vn -0.7013 0.4590 0.5454
vn -0.0111 0.8351 0.5500
vn 0.3946 0.9123 -0.1098
vn 0.1204 0.6179 -0.7770
vn -0.5611 0.2429 -0.7913
vn -0.9781 0.1598 -0.1335
vt 0.726478 0.000047
vt 0.762150 0.004863
vt 0.765139 0.311538
vt 0.737049 0.307917
vt 0.797699 0.010173
vt 0.832135 0.010141
vt 0.823113 0.309909
vt 0.793722 0.312780
vt 0.905060 0.000047
vt 0.942970 0.001740
vt 0.909235 0.308834
vt 0.880948 0.304874
vt 0.867647 0.004888
vt 0.852204 0.305618
vt 0.811408 0.615735
vt 0.792062 0.613329
vt 0.869730 0.613009
vt 0.850029 0.614883
vt 0.830786 0.616418
vt 0.772090 0.611886
vt 0.889591 0.613486
vt 0.806051 0.986817
vt 0.797611 0.987556
vt 0.823141 0.986824
vt 0.814592 0.986476
vt 0.849668 0.988588
vt 0.840904 0.988333
vt 0.831959 0.987640
vt 0.830358 0.999260
vt 0.826686 0.993103
vt 0.844577 0.994490
vt 0.839304 0.999953
s 1
usemtl Material
f 54/65/54 49/66/49 55/67/55 60/68/60
f 50/69/50 51/70/51 57/71/57 56/72/56
f 53/73/53 54/74/54 60/75/60 59/76/59
f 49/66/49 50/69/50 56/72/56 55/67/55
f 52/77/52 53/73/53 59/76/59 58/78/58
f 51/70/51 52/77/52 58/78/58 57/71/57
f 55/67/55 56/72/56 62/79/62 61/80/61
f 58/78/58 59/76/59 65/81/65 64/82/64
f 57/71/57 58/78/58 64/82/64 63/83/63
f 60/68/60 55/67/55 61/80/61 66/84/66
f 56/72/56 57/71/57 63/83/63 62/79/62
f 59/76/59 60/75/60 66/85/66 65/81/65
f 66/84/66 61/80/61 67/86/67 72/87/72
f 62/79/62 63/83/63 69/88/69 68/89/68
f 65/81/65 66/85/66 72/90/72 71/91/71
f 61/80/61 62/79/62 68/89/68 67/86/67
f 64/82/64 65/81/65 71/91/71 70/92/70
f 63/83/63 64/82/64 70/92/70 69/88/69
f 68/93/68 69/94/69 70/92/70 71/91/71 72/95/72 67/96/67
o Circle.001
v 0.028819 1.954826 -0.119277
v -0.047890 2.021628 -0.055612
v -0.049182 2.013811 0.064126
v 0.026236 1.939192 0.120199
v 0.102945 1.872391 0.056535
v 0.104237 1.880208 -0.063204
v 0.586523 2.639968 -0.000274
v 0.511473 2.684567 0.033642
v 0.487731 2.674486 0.123678
v 0.539039 2.619806 0.179798
v 0.614089 2.575207 0.145882
v 0.637830 2.585288 0.055845
v 0.931311 3.641297 0.235065
v 0.870815 3.681620 0.244062
v 0.836056 3.681627 0.308548
v 0.861793 3.641313 0.364036
v 0.922289 3.600991 0.355039
v 0.957049 3.600983 0.290553
v 1.463854 4.599431 0.619433
v 1.422574 4.622502 0.639643
v 1.414046 4.620183 0.690307
v 1.446799 4.594792 0.720760
v 1.488080 4.571720 0.700550
v 1.496608 4.574039 0.649886
v 1.976024 5.784720 0.740051
v 1.969554 5.786747 0.745605
v 1.970809 5.786016 0.754248
v 1.978533 5.783258 0.757337
v 1.985002 5.781231 0.751783
v 1.983748 5.781962 0.743140
vn 0.1345 0.0626 -0.9889
vn -0.6013 0.5819 -0.5476
vn -0.7047 0.5301 0.4716
vn -0.0512 -0.0503 0.9974
vn 0.6636 -0.5480 0.5093
vn 0.7437 -0.4847 -0.4605
vn 0.2963 0.0628 -0.9530
vn -0.5747 0.4661 -0.6727
vn -0.8445 0.4177 0.3352
vn -0.1644 -0.0609 0.9845
vn 0.6603 -0.4521 0.5996
vn 0.8639 -0.3852 -0.3246
vn 0.3635 0.1175 -0.9241
vn -0.5287 0.4687 -0.7077
vn -0.9075 0.3813 0.1763
vn -0.4164 -0.0630 0.9070
vn 0.5304 -0.4241 0.7340
vn 0.9215 -0.3283 -0.2075
vn 0.2955 0.0830 -0.9517
vn -0.6153 0.4839 -0.6224
vn -0.8421 0.3946 0.3678
vn -0.2202 -0.0554 0.9739
vn 0.6069 -0.4367 0.6641
vn 0.8845 -0.3818 -0.2680
vn 0.2977 0.5880 -0.7521
vn -0.3687 0.8321 -0.4143
vn -0.4382 0.8233 0.3609
vn 0.1502 0.5727 0.8059
vn 0.8133 0.3279 0.4807
vn 0.8945 0.3330 -0.2983
vt 0.840518 0.006082
vt 0.873638 0.009053
vt 0.848171 0.202579
vt 0.818640 0.202517
vt 0.732492 0.001640
vt 0.767770 0.000046
vt 0.764085 0.195810
vt 0.736823 0.194583
vt 0.804876 0.002026
vt 0.790857 0.199507
vt 0.908003 0.010064
vt 0.943310 0.010644
vt 0.904799 0.201291
vt 0.876944 0.200916
vt 0.775617 0.442432
vt 0.754200 0.439493
vt 0.816011 0.447560
vt 0.795634 0.446036
vt 0.732492 0.440019
vt 0.857998 0.444963
vt 0.836741 0.446462
vt 0.782377 0.700849
vt 0.766914 0.698978
vt 0.827830 0.702830
vt 0.812734 0.702940
vt 0.797682 0.702448
vt 0.751705 0.698247
vt 0.736586 0.699042
vt 0.756532 0.988652
vt 0.750037 0.988948
vt 0.769365 0.989205
vt 0.762965 0.988669
vt 0.743274 0.989133
vt 0.782910 0.990961
vt 0.775987 0.990114
vt 0.774031 0.999107
vt 0.771548 0.994187
vt 0.785393 0.995881
vt 0.780954 0.999954
s 1
usemtl Material
f 74/97/74 75/98/75 81/99/81 80/100/80
f 77/101/77 78/102/78 84/103/84 83/104/83
f 73/105/73 74/97/74 80/100/80 79/106/79
f 76/107/76 77/108/77 83/109/83 82/110/82
f 75/98/75 76/107/76 82/110/82 81/99/81
f 78/102/78 73/105/73 79/106/79 84/103/84
f 84/103/84 79/106/79 85/111/85 90/112/90
f 80/100/80 81/99/81 87/113/87 86/114/86
f 83/104/83 84/103/84 90/112/90 89/115/89
f 79/106/79 80/100/80 86/114/86 85/111/85
f 82/110/82 83/109/83 89/116/89 88/117/88
f 81/99/81 82/110/82 88/117/88 87/113/87
f 85/111/85 86/114/86 92/118/92 91/119/91
f 88/117/88 89/116/89 95/120/95 94/121/94
f 87/113/87 88/117/88 94/121/94 93/122/93
f 90/112/90 85/111/85 91/119/91 96/123/96
f 86/114/86 87/113/87 93/122/93 92/118/92
f 89/115/89 90/112/90 96/123/96 95/124/95
f 96/123/96 91/119/91 97/125/97 102/126/102
f 92/118/92 93/122/93 99/127/99 98/128/98
f 95/124/95 96/123/96 102/126/102 101/129/101
f 91/119/91 92/118/92 98/128/98 97/125/97
f 94/121/94 95/120/95 101/130/101 100/131/100
f 93/122/93 94/121/94 100/131/100 99/127/99
f 98/132/98 99/133/99 100/131/100 101/130/101 102/134/102 97/135/97
o Circle
v -0.000000 -0.076682 -0.245516
v -0.173606 -0.076682 -0.173606
v -0.245516 -0.076682 0.000000
v -0.173606 -0.076682 0.173606
v 0.000000 -0.076682 0.245516
v 0.173606 -0.076682 0.173606
v 0.245516 -0.076682 -0.000000
v 0.173606 -0.076682 -0.173606
v 0.001768 0.100123 -0.190278
v -0.132779 0.100123 -0.134547
v -0.188510 0.100123 0.000000
v -0.132779 0.100123 0.134547
v 0.001768 0.100123 0.190278
v 0.136315 0.100123 0.134547
v 0.192046 0.100123 0.000000
v 0.136315 0.100123 -0.134547
v -0.000778 0.364906 -0.167870
v -0.119480 0.364906 -0.118702
v -0.168648 0.364906 0.000000
v -0.119480 0.364906 0.118702
v -0.000778 0.364906 0.167870
v 0.117924 0.364906 0.118702
v 0.167092 0.364906 0.000000
v 0.117924 0.364906 -0.118702
v -0.003324 0.731529 -0.148218
v -0.108130 0.731529 -0.104806
v -0.151542 0.731529 0.000000
v -0.108130 0.731529 0.104806
v -0.003324 0.731529 0.148218
v 0.101482 0.731529 0.104806
v 0.144894 0.731529 0.000000
v 0.101482 0.731529 -0.104806
v 0.005799 1.506954 -0.122880
v -0.081091 1.506954 -0.086889
v -0.117082 1.506954 0.000000
v -0.081091 1.506954 0.086890
v 0.005799 1.506954 0.122881
v 0.092688 1.506954 0.086890
v 0.128679 1.506954 0.000000
v 0.092688 1.506954 -0.086889
v 0.024044 2.373605 -0.115986
v -0.057971 2.373605 -0.082014
v -0.091942 2.373605 0.000000
v -0.057971 2.373605 0.082015
v 0.024044 2.373605 0.115987
v 0.106059 2.373605 0.082015
v 0.140030 2.373605 0.000000
v 0.106059 2.373605 -0.082014
v 0.024044 3.404463 -0.111599
v -0.047130 3.404463 -0.082118
v -0.076611 3.404463 -0.010944
v -0.047130 3.404463 0.060229
v 0.024044 3.404463 0.089710
v 0.095218 3.404463 0.060229
v 0.124699 3.404463 -0.010944
v 0.095218 3.404463 -0.082118
v -0.039814 4.552375 -0.134736
v -0.099843 4.553365 -0.109891
v -0.124707 4.555757 -0.049910
v -0.099843 4.558148 0.010070
v -0.039814 4.559139 0.034915
v 0.020214 4.558148 0.010070
v 0.045078 4.555757 -0.049910
v 0.020214 4.553365 -0.109891
v -0.199966 5.397248 -0.262326
v -0.251177 5.388227 -0.256310
v -0.284724 5.390637 -0.216198
v -0.280956 5.403066 -0.165488
v -0.242079 5.418231 -0.133885
v -0.190868 5.427250 -0.139901
v -0.157320 5.424841 -0.180013
v -0.161089 5.412414 -0.230723
v -0.338626 6.240767 -0.625447
v -0.367933 6.232730 -0.638203
v -0.399237 6.235597 -0.628301
v -0.414200 6.247687 -0.601540
v -0.404058 6.261917 -0.573597
v -0.374750 6.269955 -0.560841
v -0.343447 6.267087 -0.570744
v -0.328483 6.254998 -0.597504
v -0.500112 7.050970 -1.232092
v -0.501556 7.050573 -1.232720
v -0.503098 7.050714 -1.232232
v -0.503835 7.051310 -1.230914
v -0.503335 7.052011 -1.229538
v -0.501891 7.052407 -1.228909
v -0.500349 7.052265 -1.229397
v -0.499612 7.051670 -1.230715
vn -0.0020 0.2982 -0.9545
vn -0.6746 0.3043 -0.6726
vn -0.9518 0.3069 -0.0000
vn -0.6746 0.3043 0.6726
vn -0.0020 0.2982 0.9545
vn 0.6753 0.2920 0.6773
vn 0.9572 0.2895 -0.0000
vn 0.6753 0.2920 -0.6773
vn 0.0024 0.1976 -0.9803
vn -0.6919 0.1978 -0.6943
vn -0.9802 0.1979 -0.0000
vn -0.6919 0.1978 0.6943
vn 0.0024 0.1976 0.9803
vn 0.6944 0.1974 0.6920
vn 0.9803 0.1974 -0.0000
vn 0.6944 0.1974 -0.6920
vn -0.0004 0.0692 -0.9976
vn -0.7059 0.0633 -0.7055
vn -0.9981 0.0609 -0.0000
vn -0.7059 0.0633 0.7055
vn -0.0004 0.0692 0.9976
vn 0.7049 0.0750 0.7053
vn 0.9970 0.0775 -0.0000
vn 0.7049 0.0750 -0.7053
vn -0.0023 0.0432 -0.9991
vn -0.7075 0.0448 -0.7053
vn -0.9990 0.0455 -0.0000
vn -0.7075 0.0448 0.7053
vn -0.0023 0.0432 0.9991
vn 0.7054 0.0416 0.7076
vn 0.9992 0.0409 -0.0000
vn 0.7054 0.0416 -0.7076
vn -0.0011 0.0204 -0.9998
vn -0.7073 0.0320 -0.7062
vn -0.9993 0.0368 -0.0000
vn -0.7073 0.0320 0.7062
vn -0.0011 0.0204 0.9998
vn 0.7065 0.0088 0.7076
vn 1.0000 0.0039 -0.0000
vn 0.7065 0.0088 -0.7076
vn 0.0026 0.0061 -1.0000
vn -0.7064 0.0151 -0.7077
vn -0.9998 0.0220 0.0013
vn -0.7050 0.0226 0.7089
vn 0.0026 0.0166 0.9999
vn 0.7077 0.0077 0.7064
vn 1.0000 0.0009 0.0013
vn 0.7090 0.0002 -0.7052
vn 0.0067 -0.0076 -0.9999
vn -0.7051 -0.0212 -0.7088
vn -0.9999 -0.0134 0.0032
vn -0.7022 0.0109 0.7119
vn 0.0066 0.0367 0.9993
vn 0.7084 0.0492 0.7041
vn 0.9991 0.0418 0.0021
vn 0.7115 0.0186 -0.7025
vn 0.0840 -0.0678 -0.9942
vn -0.6517 -0.1494 -0.7436
vn -0.9913 -0.1256 -0.0405
vn -0.7324 -0.0141 0.6807
vn -0.0480 0.1081 0.9930
vn 0.6542 0.1732 0.7362
vn 0.9857 0.1549 0.0670
vn 0.7600 0.0602 -0.6471
vn 0.3409 -0.1991 -0.9188
vn -0.4322 -0.3426 -0.8342
vn -0.9334 -0.2598 -0.2476
vn -0.8811 -0.0168 0.4726
vn -0.3296 0.2425 0.9124
vn 0.3963 0.3798 0.8359
vn 0.9011 0.3204 0.2921
vn 0.8963 0.0838 -0.4355
vn 0.6626 -0.2671 -0.6997
vn -0.0648 -0.5109 -0.8572
vn -0.7546 -0.4208 -0.5035
vn -0.9885 -0.0578 0.1400
vn -0.6400 0.3473 0.6854
vn 0.0618 0.5614 0.8252
vn 0.7222 0.4836 0.4945
vn 0.9799 0.1502 -0.1314
vn 0.5415 0.3383 -0.7696
vn 0.0168 0.1499 -0.9886
vn -0.5543 0.2010 -0.8077
vn -0.8208 0.4607 -0.3377
vn -0.6249 0.7706 0.1254
vn -0.1115 0.9446 0.3087
vn 0.4203 0.8966 0.1395
vn 0.6990 0.6514 -0.2950
vt 0.796502 0.000049
vt 0.835675 0.000049
vt 0.833881 0.025338
vt 0.798754 0.025762
vt 0.911082 0.006049
vt 0.947920 0.011902
vt 0.934912 0.034868
vt 0.902660 0.029684
vt 0.756579 0.002673
vt 0.764074 0.028198
vt 0.873953 0.002133
vt 0.868633 0.026706
vt 0.717657 0.008556
vt 0.730385 0.032409
vt 0.984049 0.021438
vt 0.964261 0.041679
vt 0.681101 0.017734
vt 0.699223 0.038843
vt 0.802532 0.064221
vt 0.772828 0.065766
vt 0.891677 0.066634
vt 0.862404 0.064628
vt 0.743961 0.068407
vt 0.832538 0.063822
vt 0.947079 0.073782
vt 0.919974 0.069753
vt 0.716450 0.071957
vt 0.831068 0.115005
vt 0.805500 0.115095
vt 0.907107 0.118393
vt 0.882000 0.116697
vt 0.780109 0.115818
vt 0.856638 0.115549
vt 0.755151 0.117109
vt 0.931800 0.120522
vt 0.730658 0.118943
vt 0.849640 0.220765
vt 0.828712 0.220290
vt 0.911970 0.222718
vt 0.891336 0.221988
vt 0.766212 0.220538
vt 0.745605 0.221280
vt 0.807803 0.220033
vt 0.870540 0.221343
vt 0.786954 0.220105
vt 0.864631 0.336660
vt 0.845300 0.336205
vt 0.787266 0.335629
vt 0.767935 0.335844
vt 0.825989 0.335832
vt 0.903388 0.337604
vt 0.884000 0.337127
vt 0.748588 0.336200
vt 0.806625 0.335623
vt 0.873036 0.472775
vt 0.856251 0.472012
vt 0.805685 0.471780
vt 0.788938 0.472108
vt 0.839439 0.471582
vt 0.772336 0.472347
vt 0.822533 0.471539
vt 0.889704 0.473685
vt 0.755532 0.472431
vt 0.874256 0.624260
vt 0.860710 0.622513
vt 0.777412 0.623983
vt 0.763356 0.623430
vt 0.819301 0.621511
vt 0.805438 0.622698
vt 0.847013 0.621215
vt 0.791480 0.623716
vt 0.833200 0.620883
vt 0.790645 0.736502
vt 0.779807 0.737211
vt 0.823636 0.735727
vt 0.812487 0.735521
vt 0.857067 0.738135
vt 0.845887 0.737339
vt 0.768785 0.737674
vt 0.801471 0.735828
vt 0.834813 0.736427
vt 0.799886 0.859119
vt 0.792833 0.859497
vt 0.821029 0.857837
vt 0.813996 0.857974
vt 0.785744 0.859452
vt 0.806918 0.858500
vt 0.834904 0.859050
vt 0.827953 0.858236
vt 0.778589 0.859158
vt 0.807291 0.993590
vt 0.803420 0.994144
vt 0.819145 0.993695
vt 0.815276 0.993254
vt 0.799635 0.994557
vt 0.811263 0.993218
vt 0.795824 0.994637
vt 0.822984 0.994340
vt 0.792018 0.994387
vt 0.824946 0.996439
vt 0.823880 0.998764
vt 0.820412 0.999951
vt 0.816573 0.999305
vt 0.814611 0.997206
vt 0.815678 0.994882
s 1
usemtl Material
f 106/136/106 107/137/107 115/138/115 114/139/114
f 109/140/109 110/141/110 118/142/118 117/143/117
f 105/144/105 106/136/106 114/139/114 113/145/113
f 108/146/108 109/140/109 117/143/117 116/147/116
f 104/148/104 105/144/105 113/145/113 112/149/112
f 107/137/107 108/146/108 116/147/116 115/138/115
f 110/141/110 103/150/103 111/151/111 118/142/118
f 103/152/103 104/148/104 112/149/112 111/153/111
f 113/145/113 114/139/114 122/154/122 121/155/121
f 116/147/116 117/143/117 125/156/125 124/157/124
f 112/149/112 113/145/113 121/155/121 120/158/120
f 115/138/115 116/147/116 124/157/124 123/159/123
f 118/142/118 111/151/111 119/160/119 126/161/126
f 111/153/111 112/149/112 120/158/120 119/162/119
f 114/139/114 115/138/115 123/159/123 122/154/122
f 117/143/117 118/142/118 126/161/126 125/156/125
f 122/154/122 123/159/123 131/163/131 130/164/130
f 125/156/125 126/161/126 134/165/134 133/166/133
f 121/155/121 122/154/122 130/164/130 129/167/129
f 124/157/124 125/156/125 133/166/133 132/168/132
f 120/158/120 121/155/121 129/167/129 128/169/128
f 123/159/123 124/157/124 132/168/132 131/163/131
f 126/161/126 119/160/119 127/170/127 134/165/134
f 119/162/119 120/158/120 128/169/128 127/171/127
f 131/163/131 132/168/132 140/172/140 139/173/139
f 134/165/134 127/170/127 135/174/135 142/175/142
f 127/171/127 128/169/128 136/176/136 135/177/135
f 130/164/130 131/163/131 139/173/139 138/178/138
f 133/166/133 134/165/134 142/175/142 141/179/141
f 129/167/129 130/164/130 138/178/138 137/180/137
f 132/168/132 133/166/133 141/179/141 140/172/140
f 128/169/128 129/167/129 137/180/137 136/176/136
f 140/172/140 141/179/141 149/181/149 148/182/148
f 136/176/136 137/180/137 145/183/145 144/184/144
f 139/173/139 140/172/140 148/182/148 147/185/147
f 142/175/142 135/174/135 143/186/143 150/187/150
f 135/177/135 136/176/136 144/184/144 143/188/143
f 138/178/138 139/173/139 147/185/147 146/189/146
f 141/179/141 142/175/142 150/187/150 149/181/149
f 137/180/137 138/178/138 146/189/146 145/183/145
f 149/181/149 150/187/150 158/190/158 157/191/157
f 145/183/145 146/189/146 154/192/154 153/193/153
f 148/182/148 149/181/149 157/191/157 156/194/156
f 144/184/144 145/183/145 153/193/153 152/195/152
f 147/185/147 148/182/148 156/194/156 155/196/155
f 150/187/150 143/186/143 151/197/151 158/190/158
f 143/188/143 144/184/144 152/195/152 151/198/151
f 146/189/146 147/185/147 155/196/155 154/192/154
f 158/190/158 151/197/151 159/199/159 166/200/166
f 151/198/151 152/195/152 160/201/160 159/202/159
f 154/192/154 155/196/155 163/203/163 162/204/162
f 157/191/157 158/190/158 166/200/166 165/205/165
f 153/193/153 154/192/154 162/204/162 161/206/161
f 156/194/156 157/191/157 165/205/165 164/207/164
f 152/195/152 153/193/153 161/206/161 160/201/160
f 155/196/155 156/194/156 164/207/164 163/203/163
f 160/201/160 161/206/161 169/208/169 168/209/168
f 163/203/163 164/207/164 172/210/172 171/211/171
f 166/200/166 159/199/159 167/212/167 174/213/174
f 159/202/159 160/201/160 168/209/168 167/214/167
f 162/204/162 163/203/163 171/211/171 170/215/170
f 165/205/165 166/200/166 174/213/174 173/216/173
f 161/206/161 162/204/162 170/215/170 169/208/169
f 164/207/164 165/205/165 173/216/173 172/210/172
f 169/208/169 170/215/170 178/217/178 177/218/177
f 172/210/172 173/216/173 181/219/181 180/220/180
f 168/209/168 169/208/169 177/218/177 176/221/176
f 171/211/171 172/210/172 180/220/180 179/222/179
f 174/213/174 167/212/167 175/223/175 182/224/182
f 167/214/167 168/209/168 176/221/176 175/225/175
f 170/215/170 171/211/171 179/222/179 178/217/178
f 173/216/173 174/213/174 182/224/182 181/219/181
f 178/217/178 179/222/179 187/226/187 186/227/186
f 181/219/181 182/224/182 190/228/190 189/229/189
f 177/218/177 178/217/178 186/227/186 185/230/185
f 180/220/180 181/219/181 189/229/189 188/231/188
f 176/221/176 177/218/177 185/230/185 184/232/184
f 179/222/179 180/220/180 188/231/188 187/226/187
f 182/224/182 175/223/175 183/233/183 190/228/190
f 175/225/175 176/221/176 184/232/184 183/234/183
f 184/235/184 185/236/185 186/237/186 187/238/187 188/239/188 189/240/189 190/228/190 183/233/183
