<svg width="11" height="11" viewBox="0 0 11 11" fill="none" xmlns="http://www.w3.org/2000/svg">
<path d="M1.83341 9.16665C1.58133 9.16665 1.36362 9.0788 1.18029 8.9031C1.0046 8.71977 0.916748 8.50206 0.916748 8.24998V2.74998C0.916748 2.4979 1.0046 2.28401 1.18029 2.10831C1.36362 1.92498 1.58133 1.83331 1.83341 1.83331H7.33341C7.5855 1.83331 7.79939 1.92498 7.97508 2.10831C8.15842 2.28401 8.25008 2.4979 8.25008 2.74998V4.81248L10.0834 2.97915V8.02081L8.25008 6.18748V8.24998C8.25008 8.50206 8.15842 8.71977 7.97508 8.9031C7.79939 9.0788 7.5855 9.16665 7.33341 9.16665H1.83341ZM1.83341 8.24998H7.33341V2.74998H1.83341V8.24998ZM1.83341 8.24998V2.74998V8.24998Z" fill="black"/>
</svg>
