<svg width="11" height="11" viewBox="0 0 11 11" fill="none" xmlns="http://www.w3.org/2000/svg">
<path d="M4.6063 10.5417C4.37713 10.5417 4.16324 10.4901 3.96463 10.387C3.76602 10.2839 3.60179 10.1368 3.47192 9.94587L0.550049 5.67192L0.825049 5.40837C0.970188 5.26323 1.14206 5.17921 1.34067 5.15629C1.53929 5.13337 1.7188 5.17921 1.87922 5.29379L3.20838 6.22192V1.83337C3.20838 1.70351 3.25231 1.59466 3.34015 1.50681C3.428 1.41896 3.53685 1.37504 3.66672 1.37504C3.79658 1.37504 3.90543 1.41896 3.99328 1.50681C4.08113 1.59466 4.12505 1.70351 4.12505 1.83337V7.9865L2.42922 6.79483L4.22817 9.41879C4.26637 9.4799 4.31984 9.52955 4.38859 9.56775C4.45734 9.60594 4.52991 9.62504 4.6063 9.62504H7.79172C8.0438 9.62504 8.2596 9.53528 8.43911 9.35577C8.61863 9.17626 8.70838 8.96046 8.70838 8.70837V2.29171C8.70838 2.16185 8.75231 2.05299 8.84015 1.96514C8.928 1.8773 9.03686 1.83337 9.16672 1.83337C9.29658 1.83337 9.40543 1.8773 9.49328 1.96514C9.58113 2.05299 9.62505 2.16185 9.62505 2.29171V8.70837C9.62505 9.21254 9.44554 9.64414 9.08651 10.0032C8.72748 10.3622 8.29588 10.5417 7.79172 10.5417H4.6063ZM5.04172 5.50004V0.916707C5.04172 0.786846 5.08564 0.677992 5.17349 0.590145C5.26133 0.502298 5.37019 0.458374 5.50005 0.458374C5.62991 0.458374 5.73876 0.502298 5.82661 0.590145C5.91446 0.677992 5.95838 0.786846 5.95838 0.916707V5.50004H5.04172ZM6.87505 5.50004V1.37504C6.87505 1.24518 6.91897 1.13633 7.00682 1.04848C7.09467 0.960631 7.20352 0.916707 7.33338 0.916707C7.46324 0.916707 7.5721 0.960631 7.65995 1.04848C7.74779 1.13633 7.79172 1.24518 7.79172 1.37504V5.50004H6.87505Z" fill="black"/>
</svg>
