<svg width="11" height="11" viewBox="0 0 11 11" fill="none" xmlns="http://www.w3.org/2000/svg">
<path d="M1.375 9.625V7.67708L7.425 1.63854C7.51667 1.55451 7.61788 1.48958 7.72865 1.44375C7.83941 1.39792 7.9559 1.375 8.07813 1.375C8.20035 1.375 8.31875 1.39792 8.43333 1.44375C8.54792 1.48958 8.64722 1.55833 8.73125 1.65L9.36146 2.29167C9.45313 2.37569 9.51997 2.475 9.56198 2.58958C9.60399 2.70417 9.625 2.81875 9.625 2.93333C9.625 3.05556 9.60399 3.17205 9.56198 3.28281C9.51997 3.39358 9.45313 3.49479 9.36146 3.58646L3.32292 9.625H1.375ZM8.06667 3.575L8.70833 2.93333L8.06667 2.29167L7.425 2.93333L8.06667 3.575Z" fill="black"/>
</svg>
