<svg width="11" height="11" viewBox="0 0 11 11" fill="none" xmlns="http://www.w3.org/2000/svg">
<path d="M5.50008 10.0833L3.55216 8.13538L4.20529 7.48225L5.04175 8.31871V5.95829H2.69279L3.52925 6.78329L2.86466 7.44788L0.916748 5.49996L2.85321 3.5635L3.50633 4.21663L2.68133 5.04163H5.04175V2.68121L4.20529 3.51767L3.55216 2.86454L5.50008 0.916626L7.448 2.86454L6.79487 3.51767L5.95841 2.68121V5.04163H8.30737L7.47091 4.21663L8.1355 3.55204L10.0834 5.49996L8.1355 7.44788L7.48237 6.79475L8.31883 5.95829H5.95841V8.30725L6.78341 7.47079L7.448 8.13538L5.50008 10.0833Z" fill="black"/>
</svg>
