<svg width="11" height="11" viewBox="0 0 11 11" fill="none" xmlns="http://www.w3.org/2000/svg">
<path d="M7.35617 8.66252C7.06589 8.83058 6.76797 8.95662 6.46242 9.04065C6.15686 9.12467 5.84367 9.16669 5.52283 9.16669C4.49922 9.16669 3.62839 8.81148 2.91034 8.10106C2.19228 7.39065 1.83325 6.52363 1.83325 5.50002L1.83325 5.41981L1.09992 6.15315L0.458252 5.51148L2.29158 3.67815L4.12492 5.51148L3.48325 6.15315L2.74992 5.41981L2.74992 5.50002C2.74992 6.26391 3.01919 6.91321 3.55773 7.44794C4.09627 7.98266 4.75131 8.25002 5.52283 8.25002C5.72145 8.25002 5.91624 8.2271 6.10721 8.18127C6.29818 8.13544 6.48533 8.06669 6.66867 7.97502L7.35617 8.66252ZM10.5416 5.48856L8.70825 7.32189L6.87492 5.48856L7.51658 4.84689L8.24992 5.58023L8.24992 5.50002C8.24992 4.73613 7.98065 4.08683 7.44211 3.5521C6.90356 3.01738 6.24853 2.75002 5.477 2.75002C5.27839 2.75002 5.0836 2.77294 4.89263 2.81877C4.70165 2.8646 4.5145 2.93335 4.33117 3.02502L3.64367 2.33752C3.93395 2.16946 4.23186 2.04342 4.53742 1.9594C4.84297 1.87537 5.15617 1.83335 5.477 1.83335C6.50061 1.83335 7.37145 2.18856 8.0895 2.89898C8.80756 3.60939 9.16658 4.47641 9.16658 5.50002L9.16658 5.58023L9.89992 4.84689L10.5416 5.48856Z" fill="black"/>
</svg>
