<svg width="11" height="11" viewBox="0 0 11 11" fill="none" xmlns="http://www.w3.org/2000/svg">
<g clip-path="url(#clip0_8_782)">
<path d="M4.23963 10.0834L4.0563 8.61669C3.95699 8.57849 3.86342 8.53266 3.77557 8.47919C3.68772 8.42571 3.60178 8.36842 3.51776 8.30731L2.15422 8.88023L0.893799 6.70315L2.07401 5.8094C2.06637 5.75592 2.06255 5.70436 2.06255 5.65471V5.34533C2.06255 5.29568 2.06637 5.24412 2.07401 5.19065L0.893799 4.2969L2.15422 2.11981L3.51776 2.69273C3.60178 2.63162 3.68963 2.57433 3.7813 2.52085C3.87297 2.46738 3.96463 2.42155 4.0563 2.38335L4.23963 0.916687H6.76047L6.9438 2.38335C7.0431 2.42155 7.13668 2.46738 7.22453 2.52085C7.31238 2.57433 7.39831 2.63162 7.48234 2.69273L8.84588 2.11981L10.1063 4.2969L8.92609 5.19065C8.93373 5.24412 8.93755 5.29568 8.93755 5.34533V5.65471C8.93755 5.70436 8.92991 5.75592 8.91463 5.8094L10.0948 6.70315L8.83442 8.88023L7.48234 8.30731C7.39831 8.36842 7.31047 8.42571 7.2188 8.47919C7.12713 8.53266 7.03547 8.57849 6.9438 8.61669L6.76047 10.0834H4.23963ZM5.52297 7.10419C5.96602 7.10419 6.34415 6.94759 6.65734 6.6344C6.97053 6.3212 7.12713 5.94308 7.12713 5.50002C7.12713 5.05696 6.97053 4.67884 6.65734 4.36565C6.34415 4.05245 5.96602 3.89585 5.52297 3.89585C5.07227 3.89585 4.69224 4.05245 4.38286 4.36565C4.07349 4.67884 3.9188 5.05696 3.9188 5.50002C3.9188 5.94308 4.07349 6.3212 4.38286 6.6344C4.69224 6.94759 5.07227 7.10419 5.52297 7.10419Z" fill="black"/>
</g>
<defs>
<clipPath id="clip0_8_782">
<rect width="11" height="11" fill="white"/>
</clipPath>
</defs>
</svg>
